<svg width="20" height="20" viewBox="0 0 20 20" fill="none" xmlns="http://www.w3.org/2000/svg">
<path d="M19.7556 10.9231L12.2558 18.4228C12.0995 18.5792 11.8874 18.667 11.6663 18.667C11.4452 18.667 11.2331 18.5792 11.0767 18.4228C10.9204 18.2665 10.8325 18.0544 10.8325 17.8333C10.8325 17.6121 10.9204 17.4001 11.0767 17.2437L17.1546 11.1668H0.833306C0.6123 11.1668 0.400345 11.079 0.24407 10.9228C0.0877947 10.7665 0 10.5545 0 10.3335C0 10.1125 0.0877947 9.90056 0.24407 9.74429C0.400345 9.58801 0.6123 9.50022 0.833306 9.50022H17.1546L11.0767 3.42333C10.9204 3.26697 10.8325 3.0549 10.8325 2.83377C10.8325 2.61264 10.9204 2.40057 11.0767 2.24421C11.2331 2.08784 11.4452 2 11.6663 2C11.8874 2 12.0995 2.08784 12.2558 2.24421L19.7556 9.74396C19.8331 9.82135 19.8945 9.91325 19.9365 10.0144C19.9784 10.1156 20 10.224 20 10.3335C20 10.443 19.9784 10.5515 19.9365 10.6526C19.8945 10.7538 19.8331 10.8457 19.7556 10.9231Z" fill="#FFB914"/>
</svg>
