<svg width="17" height="19" viewBox="0 0 17 19" fill="none" xmlns="http://www.w3.org/2000/svg">
<path d="M15.4304 1.81674H13.3996V1.13981C13.3996 0.960283 13.3283 0.788104 13.2014 0.661157C13.0744 0.534209 12.9022 0.462891 12.7227 0.462891C12.5432 0.462891 12.371 0.534209 12.244 0.661157C12.1171 0.788104 12.0458 0.960283 12.0458 1.13981V1.81674H5.27655V1.13981C5.27655 0.960283 5.20523 0.788104 5.07828 0.661157C4.95133 0.534209 4.77916 0.462891 4.59962 0.462891C4.42009 0.462891 4.24792 0.534209 4.12097 0.661157C3.99402 0.788104 3.9227 0.960283 3.9227 1.13981V1.81674H1.89193C1.53287 1.81674 1.18851 1.95937 0.934618 2.21327C0.680723 2.46716 0.538086 2.81152 0.538086 3.17058V16.709C0.538086 17.0681 0.680723 17.4125 0.934618 17.6664C1.18851 17.9203 1.53287 18.0629 1.89193 18.0629H15.4304C15.7895 18.0629 16.1338 17.9203 16.3877 17.6664C16.6416 17.4125 16.7842 17.0681 16.7842 16.709V3.17058C16.7842 2.81152 16.6416 2.46716 16.3877 2.21327C16.1338 1.95937 15.7895 1.81674 15.4304 1.81674ZM3.9227 3.17058V3.84751C3.9227 4.02704 3.99402 4.19922 4.12097 4.32616C4.24792 4.45311 4.42009 4.52443 4.59962 4.52443C4.77916 4.52443 4.95133 4.45311 5.07828 4.32616C5.20523 4.19922 5.27655 4.02704 5.27655 3.84751V3.17058H12.0458V3.84751C12.0458 4.02704 12.1171 4.19922 12.244 4.32616C12.371 4.45311 12.5432 4.52443 12.7227 4.52443C12.9022 4.52443 13.0744 4.45311 13.2014 4.32616C13.3283 4.19922 13.3996 4.02704 13.3996 3.84751V3.17058H15.4304V5.87828H1.89193V3.17058H3.9227ZM15.4304 16.709H1.89193V7.23212H15.4304V16.709ZM12.1862 9.46089C12.2492 9.52376 12.2991 9.59842 12.3332 9.68059C12.3672 9.76277 12.3848 9.85086 12.3848 9.93981C12.3848 10.0288 12.3672 10.1169 12.3332 10.199C12.2991 10.2812 12.2492 10.3559 12.1862 10.4187L8.1247 14.4803C8.06183 14.5432 7.98718 14.5931 7.905 14.6272C7.82282 14.6613 7.73474 14.6788 7.64578 14.6788C7.55682 14.6788 7.46873 14.6613 7.38656 14.6272C7.30438 14.5931 7.22972 14.5432 7.16685 14.4803L5.13609 12.4495C5.00907 12.3225 4.93771 12.1502 4.93771 11.9706C4.93771 11.791 5.00907 11.6187 5.13609 11.4917C5.2631 11.3646 5.43538 11.2933 5.61501 11.2933C5.79464 11.2933 5.96691 11.3646 6.09393 11.4917L7.64578 13.0444L11.2284 9.46089C11.2913 9.39795 11.3659 9.34802 11.4481 9.31396C11.5303 9.27989 11.6184 9.26236 11.7073 9.26236C11.7963 9.26236 11.8844 9.27989 11.9665 9.31396C12.0487 9.34802 12.1234 9.39795 12.1862 9.46089Z" fill="white"/>
</svg>
