<svg width="20" height="21" viewBox="0 0 20 21" fill="none" xmlns="http://www.w3.org/2000/svg">
<path d="M15.436 7.4957L8.51192 14.4198C8.45161 14.4803 8.37995 14.5283 8.30105 14.5611C8.22214 14.5939 8.13755 14.6107 8.05211 14.6107C7.96668 14.6107 7.88208 14.5939 7.80318 14.5611C7.72428 14.5283 7.65262 14.4803 7.59231 14.4198L4.56302 11.3905C4.50263 11.3301 4.45474 11.2584 4.42206 11.1795C4.38938 11.1007 4.37256 11.0161 4.37256 10.9307C4.37256 10.8453 4.38938 10.7608 4.42206 10.6819C4.45474 10.603 4.50263 10.5313 4.56302 10.4709C4.6234 10.4105 4.69508 10.3626 4.77398 10.3299C4.85287 10.2973 4.93743 10.2804 5.02282 10.2804C5.10821 10.2804 5.19277 10.2973 5.27166 10.3299C5.35056 10.3626 5.42224 10.4105 5.48262 10.4709L8.05265 13.0409L14.5175 6.57718C14.6394 6.45523 14.8048 6.38672 14.9773 6.38672C15.1498 6.38672 15.3152 6.45523 15.4371 6.57718C15.559 6.69912 15.6276 6.86452 15.6276 7.03698C15.6276 7.20944 15.559 7.37484 15.4371 7.49678L15.436 7.4957Z" fill="#FFB914"/>
</svg>
