<svg width="10" height="17" viewBox="0 0 10 17" fill="none" xmlns="http://www.w3.org/2000/svg">
<path d="M9.23197 9.23506L2.27948 16.19C2.08356 16.386 1.81784 16.4961 1.54078 16.4961C1.26371 16.4961 0.99799 16.386 0.802074 16.19C0.606158 15.994 0.496094 15.7282 0.496094 15.451C0.496094 15.1739 0.606158 14.9081 0.802074 14.7121L7.01673 8.49696L0.803813 2.28011C0.706805 2.18307 0.629854 2.06786 0.577353 1.94107C0.524853 1.81428 0.497832 1.67838 0.497832 1.54115C0.497832 1.40391 0.524853 1.26801 0.577353 1.14122C0.629854 1.01443 0.706805 0.899224 0.803813 0.802182C0.90082 0.70514 1.01599 0.628162 1.14273 0.575644C1.26948 0.523125 1.40533 0.496094 1.54251 0.496094C1.6797 0.496094 1.81555 0.523125 1.9423 0.575644C2.06904 0.628162 2.18421 0.70514 2.28122 0.802182L9.23371 7.75713C9.33082 7.85417 9.40782 7.96942 9.46031 8.09629C9.5128 8.22316 9.53973 8.35915 9.53957 8.49645C9.53941 8.63376 9.51215 8.76968 9.45937 8.89643C9.40658 9.02317 9.32931 9.13825 9.23197 9.23506Z" fill="#343330"/>
</svg>
