<svg width="112" height="48" viewBox="0 0 112 48" fill="none" xmlns="http://www.w3.org/2000/svg">
<g clip-path="url(#clip0_627_115)">
<g clip-path="url(#clip1_627_115)">
<path d="M25.1989 18.7839C25.1989 20.1914 24.3598 21.4905 23.0607 21.4905C22.5735 21.4905 21.7886 21.1657 21.4908 20.4349C23.0877 19.7854 23.2231 17.2141 21.139 17.2141C18.8383 17.2141 16.4295 22.3025 16.4295 27.8511C16.4295 30.9907 17.485 33.5891 20.1646 33.5891C21.572 33.5891 23.1689 33.1831 24.9012 32.2087C25.1989 32.3441 25.3613 32.5876 25.3613 32.8583C25.3613 33.0478 25.3072 33.2643 25.1177 33.4538C23.2231 35.3484 20.8954 36.0792 18.676 36.0792C14.5078 36.0792 12.6943 32.4252 12.6943 28.3383C12.6943 21.5717 16.6731 15.4548 21.5179 15.4548C24.0892 15.4277 25.1989 17.187 25.1989 18.7839Z" fill="white"/>
<path d="M31.3701 22.3566C32.6963 22.3566 33.7519 22.7356 34.5639 23.9265C34.5097 24.549 34.0496 24.8196 33.6707 24.6573C33.1564 24.4678 32.6151 24.3595 31.9655 24.3595C29.5566 24.3595 27.9868 27.9052 27.9868 30.5035C27.9868 32.8312 28.7717 33.7515 29.719 33.7515C31.2889 33.7515 33.2647 31.1802 32.6422 28.3112C32.155 28.2841 31.7219 28.1758 31.4242 27.9864C30.8558 26.5248 31.4512 25.1986 32.967 25.1986C33.9955 25.1986 34.8616 25.794 35.2134 26.7684C36.9998 26.3624 38.5155 25.4151 39.7606 24.6031C40.0853 24.8196 40.0853 25.5775 39.6252 25.9294C38.9756 26.4436 37.1622 27.7157 35.43 28.0405C35.2676 32.0463 31.6678 36.0521 28.501 36.0521C25.7674 36.0521 24.6035 33.8597 24.6035 31.3697C24.6035 27.3639 27.3913 22.3566 31.3701 22.3566Z" fill="white"/>
<path d="M50.5059 25.1715C49.8292 25.767 48.7736 27.012 47.691 27.6887C47.7181 27.7969 47.7181 27.9052 47.7181 27.9864C47.7181 32.0463 43.9829 36.0521 40.7891 36.0521C38.0554 36.0521 36.8916 33.8597 36.8916 31.3697C36.8916 27.3639 39.6794 22.3566 43.6852 22.3566C45.0114 22.3566 46.067 22.7356 46.879 23.9265C46.8249 24.549 46.3647 24.8196 45.9858 24.6573C45.4716 24.4678 44.9302 24.3595 44.2807 24.3595C41.8718 24.3595 40.3019 27.9052 40.3019 30.5035C40.3019 32.8312 41.0869 33.7515 42.0342 33.7515C43.3875 33.7515 45.0926 31.8027 45.0926 29.3938C45.0926 29.042 45.0385 28.6901 44.9573 28.3112C44.4701 28.2841 44.0371 28.1758 43.7393 27.9864C43.1709 26.5248 43.7664 25.1986 45.2821 25.1986C46.1753 25.1986 46.9602 25.6587 47.3662 26.4165C48.4218 25.767 49.3962 24.6031 50.5329 23.7099C50.9931 24.143 50.8577 24.8738 50.5059 25.1715Z" fill="white"/>
<path d="M52.509 28.5277L53.0503 28.3924C54.7555 27.8781 55.6216 26.9038 55.6216 25.3069C55.6216 24.5761 55.5134 24.0618 55.2427 23.6558C55.5946 22.9521 56.3795 22.4379 57.2997 22.4379C58.3012 22.4379 58.7884 23.0062 58.7884 24.4137C58.8154 26.5248 57.1373 28.1217 55.4863 28.9337C55.8652 30.4765 56.6231 33.3184 58.4636 33.3184C59.0049 33.3184 59.5733 32.8312 60.277 32.2087C60.5747 32.3441 60.7371 32.5877 60.7371 32.8583C60.7371 33.0478 60.6559 33.2643 60.4935 33.4538C59.5462 34.6176 57.7057 36.0792 56.596 36.0792C53.9435 36.0792 53.2669 31.8298 52.8609 29.7728L52.2384 29.9352L51.2911 34.4282C51.0475 35.6461 50.1001 36.1063 49.207 36.1063C48.7198 36.1063 48.2867 35.9709 47.9619 35.7544L51.264 20.029C51.3722 19.5959 51.2369 19.3794 50.9933 19.3794C50.858 19.3794 50.6956 19.4876 50.452 19.7042C50.1001 19.4876 49.9107 18.6757 50.452 18.2426C51.3452 17.5389 52.3196 16.9705 53.4293 16.9705C54.3766 16.9705 54.8908 17.4306 54.7014 18.4321L52.509 28.5277Z" fill="white"/>
<path d="M64.8235 24.1159L62.3063 35.8356C60.7635 42.981 59.3832 46.0395 55.6751 46.0395C54.0782 46.0395 52.752 45.1734 52.752 42.9269C52.752 42.4668 53.1038 42.2232 53.6181 42.2232C53.8346 43.1705 54.4301 43.6847 55.4586 43.6847C57.272 43.6847 58.0299 41.2488 59.1937 35.8356L61.7108 24.1159H60.3846C60.2493 23.2769 60.6823 22.5732 61.4943 22.5732H62.0356L62.2522 21.6258C62.983 18.2155 65.2565 16.1314 67.7737 16.1314C70.0202 16.1314 71.1028 16.9705 71.1028 18.7027C71.1028 20.1913 70.2367 20.9221 69.2352 20.868C68.8834 20.8409 68.5315 20.7327 68.1797 20.4891C68.4774 19.8395 68.6127 19.1358 68.6127 18.7568C68.6127 18.2426 68.2879 17.999 67.6383 17.999C66.4204 17.999 65.7437 19.7853 65.3377 21.7612L65.1482 22.5461H67.1782C67.3135 23.3851 66.8805 24.0889 66.0685 24.0889H64.8235V24.1159Z" fill="white"/>
<path d="M80.1699 25.1715C79.4933 25.767 78.4377 27.012 77.3551 27.6887C77.3821 27.7969 77.3821 27.9052 77.3821 27.9864C77.3821 32.0463 73.647 36.0521 70.4532 36.0521C67.7195 36.0521 66.5557 33.8597 66.5557 31.3697C66.5557 27.3639 69.3435 22.3566 73.3493 22.3566C74.6755 22.3566 75.7311 22.7356 76.5431 23.9265C76.4889 24.549 76.0288 24.8196 75.6499 24.6573C75.1356 24.4678 74.5943 24.3595 73.9447 24.3595C71.5358 24.3595 69.966 27.9052 69.966 30.5035C69.966 32.8312 70.7509 33.7515 71.6982 33.7515C73.0515 33.7515 74.7567 31.8027 74.7567 29.3938C74.7567 29.042 74.7026 28.6901 74.6214 28.3112C74.1342 28.2841 73.7011 28.1758 73.4034 27.9864C72.835 26.5248 73.4305 25.1986 74.9462 25.1986C75.8394 25.1986 76.6243 25.6587 77.0303 26.4165C78.0858 25.767 79.0602 24.6031 80.197 23.7099C80.6571 24.143 80.5489 24.8738 80.1699 25.1715Z" fill="white"/>
<path d="M84.1216 25.3339C85.1772 23.1957 86.314 22.4378 87.532 22.4378C88.8041 22.4378 89.4808 23.4393 89.4808 24.5219C89.4808 25.7128 88.75 27.012 87.3696 27.012C87.126 27.012 86.8283 26.9849 86.6117 26.9037C86.8012 26.7413 86.9095 26.3895 86.9095 26.0917C86.9095 25.7128 86.6388 25.4421 86.0975 25.4421C85.2314 25.4421 83.9863 26.6331 82.633 32.75L82.3082 34.374C82.0376 35.5919 81.0361 36.0521 80.0888 36.0521C79.6016 36.0521 79.1685 35.9167 78.8438 35.7002L81.009 25.5233C81.0902 25.0903 80.982 24.8738 80.7384 24.8738C80.603 24.8738 80.4407 24.982 80.1971 25.1986C79.8452 24.982 79.6557 24.17 80.1971 23.737C81.0902 23.0333 82.0646 22.4649 83.1743 22.4649C84.1216 22.4649 84.663 22.925 84.4464 23.9264L84.1216 25.3339Z" fill="white"/>
<path d="M90.8073 25.5234C90.8885 25.0903 90.7802 24.8738 90.5366 24.8738C90.4013 24.8738 90.2389 24.9821 89.9953 25.1986C89.6434 24.9821 89.454 24.1701 89.9953 23.737C90.8885 23.0333 91.8628 22.4649 92.9726 22.4649C93.9199 22.4649 94.4612 22.925 94.2447 23.9265L92.6207 31.5862C92.2959 33.0748 92.729 33.535 93.4056 33.535C94.38 33.535 95.5168 32.8854 96.1934 32.2087C96.4911 32.344 96.6535 32.5876 96.6535 32.8583C96.6535 33.0478 96.5724 33.2643 96.41 33.4538C95.1649 34.8612 93.3785 36.0792 91.6192 36.0792C90.293 36.0792 88.7502 35.3484 89.2645 32.9124L90.8073 25.5234Z" fill="white"/>
<path d="M106.506 31.5591C106.208 32.9125 106.56 33.5079 107.101 33.5079C107.588 33.5079 108.184 33.1831 108.59 32.2358C109.104 32.2358 109.375 32.5065 109.375 32.9395C109.375 34.8071 107.209 36.0521 105.721 36.0521C104.476 36.0521 103.231 35.4567 103.258 33.3726C102.148 34.9424 100.741 36.0521 99.2249 36.0521C96.4642 36.0521 95.9229 33.2914 95.9229 31.5862C95.9229 26.9579 98.9272 22.3296 102.608 22.3296C103.799 22.3296 104.665 22.6273 105.342 23.1957C105.802 22.6544 106.479 22.4379 107.155 22.4379C107.642 22.4379 108.076 22.5732 108.4 22.7897L106.506 31.5591ZM103.312 31.6403L104.801 24.5219C104.34 24.3595 103.961 24.3054 103.556 24.3054C100.335 24.3054 99.1979 28.5007 99.1979 31.3967C99.1979 32.723 99.8204 33.3184 100.632 33.3184C101.471 33.3184 102.581 32.6418 103.312 31.6403Z" fill="white"/>
<path d="M94.19 3.19379C93.2427 3.19379 92.3225 3.35618 91.4564 3.65391C93.0262 5.60267 94.8126 7.79503 94.8396 7.8221C94.8396 7.8221 95.1373 8.22809 95.5433 8.36342C96.5719 7.87623 97.9522 8.30929 98.8995 9.39193C99.4138 10.0145 99.7386 10.7452 99.7657 11.476C99.7927 12.2068 99.5491 12.8293 99.0619 13.2624C98.683 13.5872 98.2229 13.7225 97.7357 13.7225C96.8966 13.7225 95.9764 13.2895 95.2997 12.5045C94.3524 11.3948 94.163 9.93326 94.8126 9.01301C94.7584 8.74235 94.5419 8.39049 94.19 8.03863C94.0818 7.93036 93.4863 7.28077 92.7555 6.46879C92.1059 5.738 91.294 4.87189 90.5632 4.0599C87.7212 5.41321 85.7725 8.30929 85.7725 11.6655C85.7725 16.3209 89.9677 20.462 94.6502 20.462C94.6502 20.462 93.1074 18.4862 95.1373 18.3508C95.5163 18.3238 95.8681 18.2696 96.22 18.2155C95.0832 16.6727 94.0276 15.3736 94.0006 15.3736C94.0006 15.3736 93.5404 14.6698 92.8367 14.6698C92.8097 14.6698 92.7826 14.6969 92.7285 14.6969C92.4578 14.8052 91.4834 15.13 90.6985 14.1285C90.6985 14.1285 90.6985 14.1014 90.6714 14.1014C90.6444 14.0744 90.6173 14.0202 90.5902 13.9932C90.0219 13.2624 88.2896 10.7182 88.2625 10.6911L88.2355 10.637L88.6415 10.3122L90.7256 13.0459C90.8068 13.1541 90.9692 13.1541 91.0774 13.0729C91.1857 12.9917 91.2128 12.8293 91.1316 12.7211C89.264 10.2039 89.1287 10.0145 89.1016 9.98739L89.0745 9.93326L89.5347 9.5814L91.5917 12.1797C91.6729 12.2609 91.8082 12.288 91.9165 12.2068C91.9706 12.1527 91.9977 12.0715 91.9977 11.9903V11.9632C91.9977 11.9362 91.9977 11.9362 91.9706 11.9091C91.9706 11.9091 91.9706 11.882 91.9435 11.882L89.9136 9.22954L90.3196 8.90474L90.3466 8.95887L92.2954 11.2595C92.3766 11.3678 92.5119 11.3678 92.6202 11.2866C92.7285 11.2054 92.7285 11.07 92.6743 10.9888V10.9618C91.4564 9.47313 90.8068 8.60701 90.8068 8.60701L90.7797 8.55288L91.1586 8.25516L91.1857 8.30929C91.1857 8.33635 92.539 9.71673 93.4322 10.7182C93.4863 10.7994 93.5404 10.8535 93.5946 10.9076L93.6487 10.9618C93.757 11.07 93.8382 11.1783 93.9194 11.2595C93.9464 11.2866 93.9735 11.3407 94.0006 11.3678L94.0276 11.3948C94.8396 12.3692 94.3254 13.2624 94.1359 13.506C94.1088 13.5331 94.1088 13.5601 94.0818 13.6143C93.9464 14.2638 94.5148 14.8864 94.5148 14.8864L96.3824 17.0246C96.5177 17.187 96.8425 17.5118 97.1402 17.8636C97.1673 17.8907 97.1944 17.9178 97.2214 17.9448C100.551 17.0517 102.662 14.5886 102.662 11.5843C102.635 6.98305 98.8725 3.19379 94.19 3.19379Z" fill="white"/>
<path d="M18.378 14.3992C18.1344 14.6428 17.8638 14.8864 17.6202 15.13L22.2756 13.073C22.032 12.8294 21.7884 12.5587 21.5448 12.3151C21.3012 12.0445 21.0576 11.8009 20.8411 11.5302L20.1373 10.7453L19.6501 10.204C18.6758 10.7724 17.7285 11.3407 16.7811 11.9362C15.7797 12.5858 14.7782 13.2624 13.8309 13.9932C12.8836 14.724 11.9634 15.4819 11.0972 16.3209C10.3394 17.0517 9.60861 17.8366 8.95902 18.7027L8.93196 18.9193C8.85076 19.4335 8.71543 19.9207 8.4989 20.4079C8.39064 20.6515 8.2553 20.868 8.11997 21.0846C7.95758 21.3011 7.79518 21.4906 7.55158 21.5988C7.87638 21.2199 8.01171 20.7327 8.11997 20.2726C8.22824 19.8125 8.28237 19.3253 8.30944 18.8381C8.3365 18.3509 8.3365 17.8637 8.30944 17.3765C8.30944 16.8893 8.2553 16.4292 8.2553 15.8879C8.2553 15.3736 8.3365 14.8323 8.4989 14.318C8.68836 13.8038 8.90489 13.3166 9.28382 12.9106C9.98754 12.0986 10.989 11.5843 12.0175 11.5573C11.0702 11.9362 10.2853 12.5317 9.79807 13.2895C9.52741 13.6684 9.39208 14.1015 9.25675 14.5346L9.17555 14.8593L9.14849 15.0217L9.12142 15.1841C9.09435 15.4277 9.06729 15.6443 9.09435 15.8879C9.09435 16.348 9.12142 16.8622 9.12142 17.3765C9.12142 17.6201 9.12142 17.8908 9.06729 18.1344C9.44621 17.2953 9.96047 16.5104 10.5018 15.7525C11.2596 14.7511 12.1528 13.8579 13.1272 13.073C14.1016 12.261 15.1301 11.5843 16.2128 10.9618C17.2954 10.3393 18.4322 9.82505 19.596 9.39199L19.6501 9.36492C19.6231 9.20252 19.596 9.06719 19.596 8.9048C19.569 8.63414 19.569 8.36347 19.569 8.06575C19.569 7.79508 19.569 7.52442 19.596 7.2267C19.596 7.09137 19.6231 6.95604 19.6501 6.79364C19.6772 6.65831 19.7043 6.52298 19.7313 6.38765C19.8125 5.87339 19.8396 5.33207 19.7313 4.87194C19.6231 4.38475 19.3795 4.00583 19.0276 3.68103C18.6758 3.35624 18.2427 3.11264 17.7826 2.92318C17.3225 2.73372 16.8353 2.59839 16.3481 2.54425C15.3737 2.40892 14.3452 2.51719 13.3437 2.78785C11.3408 3.41037 9.52741 4.60128 8.17411 6.22525C7.87638 6.60418 7.65985 7.09137 7.47039 7.57856C7.28092 8.06575 7.17266 8.58 7.09146 9.12133C7.03733 9.63558 7.03733 10.1769 7.11853 10.7182C7.22679 11.2325 7.41625 11.7467 7.71398 12.2339C7.36212 11.8279 7.06439 11.3137 6.902 10.7994C6.7396 10.2581 6.6584 9.68972 6.6584 9.12133C6.6584 9.09426 6.6584 9.09426 6.6584 9.06719C6.55014 9.22959 6.44187 9.36492 6.30654 9.52732C5.95468 9.93331 5.57576 10.2852 5.2239 10.637C4.49311 11.3678 3.84352 12.1257 3.32927 12.9647C2.81501 13.8038 2.49022 14.724 2.35489 15.6713C2.27369 16.5916 2.30075 17.593 2.46315 18.5403C2.65261 19.4877 2.92327 20.4079 3.43753 21.2199C3.92472 22.0319 4.60138 22.7085 5.44043 23.0875C6.27948 23.4934 7.25386 23.4934 8.11997 23.0875C8.93196 22.7085 9.60861 22.0048 10.177 21.2199C10.1229 21.1387 10.0687 21.0575 10.0146 20.9763C9.74394 20.5703 9.50035 20.1372 9.25675 19.7313C9.60861 20.0831 9.93341 20.435 10.2582 20.8139C10.5018 21.0846 10.7183 21.3282 10.9619 21.5988C11.4491 20.6244 12.0175 19.7042 12.6671 18.811C13.3708 17.8366 14.1557 16.9164 15.0218 16.0503C15.888 15.1841 16.8082 14.3992 17.8367 13.7226C18.351 13.3978 18.8652 13.073 19.4336 12.8023C19.9749 12.5317 20.5433 12.3151 21.1388 12.1527C20.6516 12.5046 20.1915 12.8835 19.7313 13.2354C19.2442 13.6414 18.8111 14.0203 18.378 14.3992Z" fill="white"/>
</g>
</g>
<defs>
<clipPath id="clip0_627_115">
<rect width="112" height="47.6364" fill="white"/>
</clipPath>
<clipPath id="clip1_627_115">
<rect width="112" height="47.6364" fill="white"/>
</clipPath>
</defs>
</svg>
