<svg width="24" height="24" viewBox="0 0 24 24" fill="none" xmlns="http://www.w3.org/2000/svg">
<path d="M22.0846 2.59688C21.9941 2.51876 21.8841 2.46681 21.7663 2.44666C21.6485 2.4265 21.5274 2.4389 21.4161 2.4825L2.41676 9.91782C2.18567 10.0082 1.99015 10.1712 1.85957 10.3822C1.72899 10.5932 1.67039 10.8409 1.69258 11.0881C1.71477 11.3352 1.81655 11.5685 1.98263 11.7529C2.14871 11.9373 2.37013 12.0628 2.61364 12.1106L7.68739 13.1072V18.75C7.68749 19.0116 7.76577 19.2672 7.91217 19.484C8.05857 19.7008 8.26642 19.8689 8.50904 19.9667C8.75166 20.0646 9.01797 20.0877 9.27381 20.0331C9.52965 19.9785 9.76334 19.8487 9.94489 19.6603L12.4424 17.07L16.3405 20.4872C16.5785 20.6978 16.8852 20.8141 17.203 20.8144C17.3418 20.8141 17.4797 20.7922 17.6118 20.7497C17.8283 20.6812 18.0231 20.5571 18.1768 20.3898C18.3304 20.2225 18.4375 20.0178 18.4874 19.7963L22.2955 3.24094C22.3223 3.12455 22.3168 3.00307 22.2796 2.88957C22.2424 2.77608 22.175 2.67488 22.0846 2.59688ZM2.81707 11.0034C2.81348 10.9938 2.81348 10.9831 2.81707 10.9734C2.82131 10.9702 2.82606 10.9676 2.83114 10.9659L17.8039 5.10469L8.11957 12.0422L2.83114 11.0072L2.81707 11.0034ZM9.13488 18.8784C9.10905 18.9053 9.07581 18.9238 9.03941 18.9316C9.00301 18.9395 8.9651 18.9363 8.9305 18.9225C8.89591 18.9087 8.8662 18.885 8.84517 18.8543C8.82413 18.8235 8.81272 18.7872 8.81238 18.75V13.8853L11.5958 16.3228L9.13488 18.8784ZM17.3914 19.5422C17.3845 19.5739 17.3692 19.6031 17.3471 19.6269C17.325 19.6506 17.2969 19.668 17.2658 19.6772C17.2341 19.6883 17.1999 19.6907 17.1669 19.6841C17.1339 19.6775 17.1033 19.6622 17.0783 19.6397L9.15363 12.6881L20.9061 4.26563L17.3914 19.5422Z" fill="#FFB914"/>
</svg>
