<svg width="40" height="57" viewBox="0 0 40 57" fill="none" xmlns="http://www.w3.org/2000/svg">
<path d="M16.9531 29.1281V23.7107C18.5677 23.7107 20 23.5014 21.25 23.0826C22.5521 22.6639 23.6458 22.0882 24.5312 21.3554C25.4167 20.5702 26.0938 19.7066 26.5625 18.7645C27.0833 17.77 27.3438 16.7493 27.3438 15.7025C27.3438 14.3939 27.0833 13.2424 26.5625 12.2479C26.0417 11.2534 25.2865 10.4945 24.2969 9.97107C23.3073 9.44766 22.0312 9.18595 20.4688 9.18595C18.2812 9.18595 16.4323 9.86639 14.9219 11.2273C13.4635 12.5358 12.7344 14.2107 12.7344 16.2521H2.34375C2.34375 13.1116 3.09896 10.3375 4.60938 7.92975C6.17187 5.4697 8.30729 3.53305 11.0156 2.11983C13.724 0.70661 16.875 0 20.4688 0C24.2708 0 27.5 0.68044 30.1562 2.04132C32.8646 3.4022 34.9219 5.20799 36.3281 7.45867C37.7344 9.70937 38.4375 12.2218 38.4375 14.9959C38.4375 17.9793 37.5 20.5441 35.625 22.6901C33.75 24.7837 31.1979 26.3802 27.9688 27.4793C24.7396 28.5785 21.0677 29.1281 16.9531 29.1281ZM20 57C16.875 57 14.0885 56.5289 11.6406 55.5868C9.19271 54.6446 7.10938 53.3623 5.39062 51.7397C3.67187 50.0647 2.34375 48.1804 1.40625 46.0868C0.46875 43.9408 0 41.6901 0 39.3347H11.0937C11.0937 41.1143 11.5104 42.6322 12.3438 43.8884C13.1771 45.1446 14.2969 46.1129 15.7031 46.7934C17.1094 47.4215 18.6458 47.7355 20.3125 47.7355C22.0312 47.7355 23.5156 47.4477 24.7656 46.8719C26.0677 46.2438 27.0833 45.354 27.8125 44.2025C28.5417 43.051 28.9062 41.6116 28.9062 39.8843C28.9062 38.6281 28.6458 37.4766 28.125 36.4297C27.6042 35.3306 26.8229 34.4146 25.7812 33.6818C24.7917 32.949 23.5417 32.3994 22.0312 32.0331C20.5729 31.6143 18.8802 31.405 16.9531 31.405V25.438C20.2865 25.438 23.3333 25.7259 26.0938 26.3017C28.9062 26.8774 31.3542 27.8196 33.4375 29.1281C35.5208 30.3843 37.1354 32.0069 38.2812 33.9959C39.4271 35.9325 40 38.2879 40 41.062C40 44.2025 39.1667 46.9766 37.5 49.3843C35.8854 51.792 33.5677 53.6763 30.5469 55.0372C27.5781 56.3457 24.0625 57 20 57Z" fill="#FFB914"/>
</svg>
