<svg width="45" height="57" viewBox="0 0 45 57" fill="none" xmlns="http://www.w3.org/2000/svg">
<path d="M0 57L25.4174 30.4586C26.8561 28.913 28.0817 27.4741 29.0941 26.1417C30.1066 24.8093 30.8792 23.4769 31.4121 22.1445C31.9449 20.8121 32.2114 19.4264 32.2114 17.9874C32.2114 16.9748 32.0249 15.9888 31.6519 15.0295C31.2789 14.0701 30.7194 13.2174 29.9734 12.4712C29.2274 11.7251 28.3215 11.1389 27.2558 10.7125C26.1901 10.2328 24.9645 9.99299 23.579 9.99299C21.6075 9.99299 19.9023 10.4727 18.4636 11.432C17.0782 12.338 15.9858 13.6438 15.1865 15.3492C14.4405 17.0547 14.0675 19.0266 14.0675 21.2651H2.87744C2.87744 17.2679 3.67673 13.6704 5.27531 10.4727C6.87389 7.2749 9.21847 4.74334 12.3091 2.87798C15.4529 0.959327 19.2895 0 23.8188 0C27.1758 0 30.1066 0.53296 32.611 1.59888C35.1687 2.6115 37.2735 3.97055 38.9254 5.67602C40.6306 7.32819 41.8828 9.1669 42.6821 11.1921C43.5346 13.2174 43.9609 15.2426 43.9609 17.2679C43.9609 20.2525 43.2416 23.0505 41.8028 25.662C40.3641 28.2735 38.4725 30.6452 36.1279 32.777L21.5808 46.5274H45V57H0Z" fill="#FFB914"/>
</svg>
