<svg width="24" height="24" viewBox="0 0 24 24" fill="none" xmlns="http://www.w3.org/2000/svg">
<path d="M16.9091 3H7.09091C4.83156 3 3 4.83156 3 7.09091V16.9091C3 19.1684 4.83156 21 7.09091 21H16.9091C19.1684 21 21 19.1684 21 16.9091V7.09091C21 4.83156 19.1684 3 16.9091 3Z" stroke="#FFB914" stroke-linecap="round" stroke-linejoin="round"/>
<path d="M7.90918 9.13635C8.00658 10.451 8.44931 11.7013 9.17934 12.7233C9.90936 13.7453 10.8926 14.4914 12.0001 14.8636V9.13635M16.091 9.13635C15.5455 10.5 14.4546 11.4545 12.8183 12M12.8183 12C14.4546 12.5454 15.5455 13.5 16.091 14.8636M12.8183 12H12.0001" stroke="#FFB914" stroke-linecap="round" stroke-linejoin="round"/>
</svg>
