<svg width="24" height="24" viewBox="0 0 24 24" fill="none" xmlns="http://www.w3.org/2000/svg">
<rect width="24" height="24" rx="12" fill="#1FAF38"/>
<path d="M5.05835 11.9369C5.05801 13.1594 5.37887 14.3531 5.98899 15.4052L5 19L8.69537 18.0354C9.71747 18.5893 10.8626 18.8796 12.0264 18.8797H12.0294C15.8711 18.8797 18.9984 15.7676 19 11.9424C19.0007 10.0888 18.2763 8.34586 16.9601 7.03454C15.6441 5.72333 13.8939 5.00085 12.0291 5C8.187 5 5.05999 8.11193 5.05841 11.9369" fill="white"/>
<path d="M10.2345 8.87898C10.0993 8.57991 9.95704 8.57388 9.82851 8.56863C9.72325 8.56412 9.60293 8.56446 9.48272 8.56446C9.36239 8.56446 9.16689 8.60952 9.00165 8.78914C8.83623 8.96893 8.37012 9.4034 8.37012 10.2871C8.37012 11.1707 9.01666 12.0248 9.10679 12.1448C9.19703 12.2645 10.355 14.1359 12.1888 14.8559C13.7129 15.4542 14.0231 15.3352 14.3539 15.3052C14.6847 15.2753 15.4214 14.8708 15.5716 14.4514C15.7221 14.032 15.7221 13.6726 15.677 13.5975C15.6319 13.5226 15.5115 13.4777 15.3311 13.3879C15.1507 13.2981 14.2636 12.8635 14.0982 12.8036C13.9328 12.7437 13.8126 12.7138 13.6922 12.8936C13.5719 13.0732 13.2264 13.4777 13.1211 13.5975C13.0159 13.7175 12.9106 13.7325 12.7302 13.6426C12.5497 13.5525 11.9686 13.3631 11.2792 12.7512C10.7429 12.2751 10.3808 11.6872 10.2755 11.5074C10.1703 11.3278 10.2643 11.2305 10.3547 11.141C10.4358 11.0605 10.5352 10.9312 10.6255 10.8264C10.7155 10.7215 10.7455 10.6467 10.8057 10.5269C10.8659 10.407 10.8357 10.3021 10.7907 10.2122C10.7455 10.1224 10.3949 9.2341 10.2345 8.87898Z" fill="#1FAF38"/>
</svg>
