<svg width="263" height="112" viewBox="0 0 263 112" fill="none" xmlns="http://www.w3.org/2000/svg">
<g clip-path="url(#clip0_49_60)">
<path d="M59.171 44.1087C59.171 47.4136 57.2007 50.4644 54.15 50.4644C53.006 50.4644 51.1628 49.7017 50.4637 47.9856C54.2135 46.4603 54.5313 40.4223 49.6374 40.4223C44.2351 40.4223 38.5785 52.3711 38.5785 65.4003C38.5785 72.7729 41.0572 78.8744 47.3494 78.8744C50.6543 78.8744 54.4042 77.921 58.4719 75.633C59.171 75.9508 59.5523 76.5228 59.5523 77.1583C59.5523 77.6032 59.4252 78.1117 58.9803 78.5566C54.5313 83.0056 49.0654 84.7216 43.8537 84.7216C34.0659 84.7216 29.8076 76.1414 29.8076 66.5443C29.8076 50.655 39.1505 36.2911 50.5272 36.2911C56.5652 36.2276 59.171 40.3588 59.171 44.1087Z" fill="#171717"/>
<path d="M73.6617 52.4982C76.776 52.4982 79.2548 53.388 81.1615 56.1845C81.0344 57.6464 79.9539 58.2819 79.0641 57.9006C77.8565 57.4557 76.5854 57.2015 75.06 57.2015C69.4034 57.2015 65.7171 65.5274 65.7171 71.6289C65.7171 77.0948 67.5603 79.2558 69.7848 79.2558C73.4711 79.2558 78.1107 73.2178 76.6489 66.4808C75.5049 66.4172 74.488 66.163 73.7888 65.7181C72.4541 62.286 73.8524 59.1717 77.4116 59.1717C79.8268 59.1717 81.8606 60.57 82.6868 62.858C86.8816 61.9047 90.4408 59.6802 93.3644 57.7735C94.1271 58.2819 94.1271 60.0615 93.0466 60.8878C91.5213 62.0954 87.2629 65.0825 83.1953 65.8452C82.814 75.2517 74.3609 84.6581 66.9247 84.6581C60.5054 84.6581 57.7725 79.51 57.7725 73.6627C57.7725 64.2563 64.3188 52.4982 73.6617 52.4982Z" fill="#171717"/>
<path d="M118.597 59.1082C117.008 60.5064 114.529 63.4301 111.987 65.019C112.051 65.2732 112.051 65.5274 112.051 65.7181C112.051 75.2517 103.28 84.6581 95.7801 84.6581C89.3609 84.6581 86.6279 79.51 86.6279 73.6627C86.6279 64.2563 93.1743 52.4982 102.581 52.4982C105.695 52.4982 108.174 53.388 110.08 56.1845C109.953 57.6464 108.873 58.2819 107.983 57.9006C106.776 57.4557 105.504 57.2015 103.979 57.2015C98.3224 57.2015 94.6361 65.5274 94.6361 71.6289C94.6361 77.0948 96.4793 79.2558 98.7038 79.2558C101.882 79.2558 105.886 74.6797 105.886 69.0231C105.886 68.1968 105.759 67.3706 105.568 66.4808C104.424 66.4172 103.407 66.163 102.708 65.7181C101.373 62.286 102.771 59.1717 106.331 59.1717C108.428 59.1717 110.271 60.2522 111.225 62.0318C113.703 60.5064 115.991 57.7735 118.661 55.6761C119.741 56.693 119.423 58.409 118.597 59.1082Z" fill="#171717"/>
<path d="M123.301 66.9893L124.572 66.6715C128.576 65.4639 130.61 63.1759 130.61 59.426C130.61 57.7099 130.355 56.5024 129.72 55.549C130.546 53.8965 132.389 52.6889 134.55 52.6889C136.902 52.6889 138.046 54.0236 138.046 57.3286C138.109 62.2861 134.169 66.0359 130.292 67.9426C131.182 71.5654 132.961 78.2389 137.283 78.2389C138.554 78.2389 139.889 77.0949 141.542 75.633C142.241 75.9508 142.622 76.5228 142.622 77.1584C142.622 77.6033 142.431 78.1118 142.05 78.5567C139.825 81.2896 135.504 84.7217 132.898 84.7217C126.669 84.7217 125.08 74.7432 124.127 69.9129L122.665 70.2943L120.441 80.8447C119.869 83.7048 117.644 84.7853 115.547 84.7853C114.403 84.7853 113.386 84.4675 112.623 83.959L120.377 47.0324C120.631 46.0154 120.313 45.507 119.741 45.507C119.424 45.507 119.042 45.7612 118.47 46.2697C117.644 45.7612 117.199 43.8545 118.47 42.8376C120.568 41.1851 122.856 39.8504 125.462 39.8504C127.686 39.8504 128.894 40.9309 128.449 43.2825L123.301 66.9893Z" fill="#171717"/>
<path d="M152.218 56.6293L146.307 84.1496C142.684 100.929 139.443 108.111 130.735 108.111C126.985 108.111 123.871 106.077 123.871 100.802C123.871 99.7211 124.697 99.1491 125.905 99.1491C126.413 101.374 127.812 102.581 130.227 102.581C134.485 102.581 136.265 96.861 138.998 84.1496L144.908 56.6293H141.794C141.476 54.6591 142.493 53.0066 144.4 53.0066H145.671L146.18 50.7821C147.896 42.7739 153.234 37.88 159.145 37.88C164.421 37.88 166.963 39.8503 166.963 43.9179C166.963 47.4136 164.929 49.1296 162.577 49.0025C161.751 48.9389 160.925 48.6847 160.099 48.1127C160.798 46.5873 161.116 44.9348 161.116 44.045C161.116 42.8375 160.353 42.2654 158.827 42.2654C155.967 42.2654 154.379 46.4602 153.425 51.0999L152.98 52.943H157.747C158.065 54.9133 157.048 56.5658 155.141 56.5658H152.218V56.6293Z" fill="#171717"/>
<path d="M188.255 59.1081C186.666 60.5064 184.188 63.43 181.645 65.0189C181.709 65.2731 181.709 65.5274 181.709 65.718C181.709 75.2516 172.938 84.6581 165.438 84.6581C159.019 84.6581 156.286 79.5099 156.286 73.6627C156.286 64.2562 162.833 52.4982 172.239 52.4982C175.353 52.4982 177.832 53.388 179.739 56.1845C179.612 57.6463 178.531 58.2819 177.641 57.9005C176.434 57.4556 175.163 57.2014 173.637 57.2014C167.981 57.2014 164.294 65.5274 164.294 71.6289C164.294 77.0948 166.137 79.2557 168.362 79.2557C171.54 79.2557 175.544 74.6796 175.544 69.023C175.544 68.1968 175.417 67.3705 175.226 66.4807C174.082 66.4172 173.065 66.1629 172.366 65.718C171.031 62.286 172.43 59.1717 175.989 59.1717C178.086 59.1717 179.929 60.2521 180.883 62.0317C183.361 60.5064 185.65 57.7734 188.319 55.676C189.399 56.6929 189.145 58.409 188.255 59.1081Z" fill="#171717"/>
<path d="M197.534 59.4895C200.013 54.4685 202.682 52.6889 205.542 52.6889C208.53 52.6889 210.119 55.0405 210.119 57.5828C210.119 60.3793 208.403 63.4301 205.161 63.4301C204.589 63.4301 203.89 63.3665 203.382 63.1758C203.826 62.7945 204.081 61.9682 204.081 61.2691C204.081 60.3793 203.445 59.7437 202.174 59.7437C200.14 59.7437 197.216 62.5403 194.039 76.9042L193.276 80.7176C192.64 83.5777 190.289 84.6581 188.064 84.6581C186.92 84.6581 185.903 84.3403 185.141 83.8319L190.225 59.9344C190.416 58.9175 190.162 58.409 189.59 58.409C189.272 58.409 188.89 58.6633 188.318 59.1717C187.492 58.6633 187.047 56.7566 188.318 55.7396C190.416 54.0872 192.704 52.7525 195.31 52.7525C197.534 52.7525 198.805 53.8329 198.297 56.1845L197.534 59.4895Z" fill="#171717"/>
<path d="M213.233 59.9343C213.424 58.9174 213.169 58.409 212.597 58.409C212.28 58.409 211.898 58.6632 211.326 59.1716C210.5 58.6632 210.055 56.7565 211.326 55.7396C213.424 54.0871 215.712 52.7524 218.318 52.7524C220.542 52.7524 221.813 53.8329 221.305 56.1845L217.491 74.1711C216.729 77.6668 217.745 78.7472 219.334 78.7472C221.622 78.7472 224.292 77.2219 225.881 75.6329C226.58 75.9507 226.961 76.5227 226.961 77.1583C226.961 77.6032 226.771 78.1117 226.389 78.5566C223.466 81.8615 219.271 84.7216 215.14 84.7216C212.025 84.7216 208.403 83.0056 209.61 77.2854L213.233 59.9343Z" fill="#171717"/>
<path d="M250.096 74.1077C249.397 77.2855 250.223 78.6838 251.494 78.6838C252.638 78.6838 254.036 77.9211 254.99 75.6966C256.197 75.6966 256.833 76.3322 256.833 77.3491C256.833 81.7345 251.748 84.6581 248.253 84.6581C245.329 84.6581 242.406 83.2599 242.469 78.366C239.863 82.0523 236.558 84.6581 232.999 84.6581C226.516 84.6581 225.245 78.1753 225.245 74.1712C225.245 63.303 232.3 52.4347 240.944 52.4347C243.74 52.4347 245.774 53.1338 247.363 54.4685C248.443 53.1974 250.032 52.6889 251.621 52.6889C252.765 52.6889 253.782 53.0067 254.545 53.5152L250.096 74.1077ZM242.596 74.2983L246.092 57.5828C245.011 57.2015 244.122 57.0744 243.168 57.0744C235.605 57.0744 232.936 66.9257 232.936 73.7263C232.936 76.8406 234.397 78.2389 236.304 78.2389C238.274 78.2389 240.88 76.6499 242.596 74.2983Z" fill="#171717"/>
<path d="M221.178 7.49982C218.954 7.49982 216.793 7.88116 214.759 8.58029C218.445 13.1564 222.64 18.3045 222.704 18.3681C222.704 18.3681 223.403 19.3214 224.356 19.6392C226.771 18.4952 230.013 19.5121 232.237 22.0544C233.445 23.5162 234.208 25.2322 234.271 26.9483C234.335 28.6643 233.763 30.1261 232.619 31.1431C231.729 31.9057 230.648 32.2235 229.504 32.2235C227.534 32.2235 225.373 31.2066 223.784 29.3635C221.56 26.7576 221.115 23.3255 222.64 21.1646C222.513 20.529 222.005 19.7028 221.178 18.8765C220.924 18.6223 219.526 17.0969 217.81 15.1902C216.284 13.4742 214.378 11.4404 212.662 9.53364C205.988 12.7115 201.412 19.5121 201.412 27.3932C201.412 38.325 211.263 48.0492 222.259 48.0492C222.259 48.0492 218.636 43.4096 223.403 43.0918C224.293 43.0282 225.119 42.9011 225.945 42.774C223.276 39.1513 220.797 36.1005 220.733 36.1005C220.733 36.1005 219.653 34.448 218.001 34.448C217.937 34.448 217.873 34.5116 217.746 34.5116C217.111 34.7658 214.823 35.5285 212.98 33.1769C212.98 33.1769 212.98 33.1133 212.916 33.1133C212.852 33.0498 212.789 32.9227 212.725 32.8591C211.391 31.1431 207.323 25.1687 207.259 25.1051L207.196 24.978L208.149 24.2153L213.043 30.6346C213.234 30.8888 213.615 30.8888 213.869 30.6982C214.124 30.5075 214.187 30.1261 213.996 29.8719C209.611 23.9611 209.293 23.5162 209.23 23.4526L209.166 23.3255L210.247 22.4993L215.077 28.6008C215.268 28.7914 215.585 28.855 215.84 28.6643C215.967 28.5372 216.03 28.3465 216.03 28.1559V28.0923C216.03 28.0288 216.03 28.0288 215.967 27.9652C215.967 27.9652 215.967 27.9016 215.903 27.9016L211.136 21.673L212.09 20.9104L212.153 21.0375L216.729 26.4398C216.92 26.6941 217.238 26.6941 217.492 26.5034C217.746 26.3127 217.746 25.9949 217.619 25.8043V25.7407C214.759 22.2451 213.234 20.2112 213.234 20.2112L213.17 20.0841L214.06 19.385L214.124 19.5121C214.124 19.5757 217.301 22.8171 219.399 25.1687C219.526 25.3594 219.653 25.4865 219.78 25.6136L219.907 25.7407C220.161 25.9949 220.352 26.2492 220.543 26.4398C220.606 26.5034 220.67 26.6305 220.733 26.6941L220.797 26.7576C222.704 29.0457 221.496 31.1431 221.051 31.7151C220.988 31.7786 220.988 31.8422 220.924 31.9693C220.606 33.4947 221.941 34.9565 221.941 34.9565L226.326 39.9775C226.644 40.3588 227.407 41.1215 228.106 41.9478C228.17 42.0113 228.233 42.0749 228.297 42.1384C236.114 40.041 241.072 34.2574 241.072 27.2025C241.008 16.3978 232.174 7.49982 221.178 7.49982Z" fill="#171717"/>
<path d="M43.1547 33.8125C42.5827 34.3845 41.9471 34.9565 41.3751 35.5285L52.3069 30.6982C51.7349 30.1262 51.1629 29.4906 50.5909 28.9186C50.0189 28.283 49.4469 27.711 48.9384 27.0754L47.2859 25.2323L46.1419 23.9611C43.8539 25.2958 41.6294 26.6305 39.4049 28.0288C37.0532 29.5541 34.7016 31.1431 32.4771 32.8591C30.2526 34.5752 28.0917 36.3547 26.0579 38.325C24.2783 40.0411 22.5622 41.8842 21.0369 43.918L20.9733 44.4265C20.7826 45.6341 20.4648 46.7781 19.9564 47.9221C19.7022 48.4942 19.3844 49.0026 19.0666 49.5111C18.6852 50.0195 18.3039 50.4644 17.7319 50.7187C18.4946 49.8289 18.8124 48.6848 19.0666 47.6044C19.3208 46.5239 19.4479 45.3799 19.5115 44.2358C19.575 43.0918 19.575 41.9478 19.5115 40.8037C19.5115 39.6597 19.3844 38.5792 19.3844 37.3081C19.3844 36.1005 19.575 34.8294 19.9564 33.6218C20.4013 32.4142 20.9097 31.2702 21.7995 30.3168C23.452 28.4101 25.8036 27.2025 28.2188 27.139C25.9943 28.0288 24.1512 29.427 23.0071 31.2066C22.3716 32.0964 22.0538 33.1133 21.736 34.1303L21.5453 34.8929L21.4818 35.2743L21.4182 35.6556C21.3546 36.2276 21.2911 36.7361 21.3546 37.3081C21.3546 38.3886 21.4182 39.5962 21.4182 40.8037C21.4182 41.3758 21.4182 42.0113 21.2911 42.5833C22.1809 40.6131 23.3885 38.7699 24.6596 36.9903C26.4392 34.6387 28.5366 32.5413 30.8246 30.6982C33.1127 28.7915 35.5279 27.2025 38.0702 25.7407C40.6124 24.2789 43.2818 23.0713 46.0148 22.0544L46.1419 21.9908C46.0784 21.6095 46.0148 21.2917 46.0148 20.9104C45.9512 20.2748 45.9512 19.6392 45.9512 18.9401C45.9512 18.3045 45.9512 17.669 46.0148 16.9698C46.0148 16.652 46.0784 16.3343 46.1419 15.9529C46.2055 15.6351 46.269 15.3174 46.3326 14.9996C46.5233 13.792 46.5868 12.5208 46.3326 11.4404C46.0784 10.2963 45.5063 9.40654 44.6801 8.64386C43.8539 7.88117 42.8369 7.30916 41.7565 6.86426C40.676 6.41936 39.532 6.10157 38.3879 5.97446C36.0999 5.65667 33.6847 5.9109 31.3331 6.54647C26.6299 8.00828 22.3716 10.8048 19.1937 14.6182C18.4946 15.508 17.9861 16.652 17.5412 17.7961C17.0963 18.9401 16.8421 20.1477 16.6514 21.4188C16.5243 22.6264 16.5243 23.8976 16.715 25.1687C16.9692 26.3763 17.4141 27.5839 18.1132 28.7279C17.287 27.7745 16.5879 26.567 16.2065 25.3594C15.8252 24.0882 15.6345 22.7535 15.6345 21.4188C15.6345 21.3553 15.6345 21.3553 15.6345 21.2917C15.3803 21.6731 15.126 21.9908 14.8083 22.3722C13.982 23.3255 13.0922 24.1518 12.266 24.978C10.5499 26.6941 9.02456 28.4737 7.81698 30.4439C6.60939 32.4142 5.84671 34.5752 5.52892 36.7997C5.33825 38.9606 5.40181 41.3122 5.78315 43.5367C6.22805 45.7612 6.86362 47.9221 8.07121 49.8289C9.21523 51.7356 10.8042 53.3245 12.7744 54.2143C14.7447 55.1676 17.0328 55.1676 19.0666 54.2143C20.9733 53.3245 22.5622 51.672 23.8969 49.8289C23.7698 49.6382 23.6427 49.4475 23.5156 49.2568C22.88 48.3035 22.308 47.2866 21.736 46.3332C22.5622 47.1595 23.3249 47.9857 24.0876 48.8755C24.6596 49.5111 25.1681 50.0831 25.7401 50.7187C26.8841 48.4306 28.2188 46.2697 29.7442 44.1723C31.3967 41.8842 33.2398 39.7233 35.2736 37.6894C37.3075 35.6556 39.4684 33.8125 41.8836 32.2235C43.0912 31.4609 44.2988 30.6982 45.6335 30.0626C46.9046 29.427 48.2393 28.9186 49.6375 28.5372C48.4935 29.3635 47.4131 30.2533 46.3326 31.0795C45.1886 32.0329 44.1716 32.9227 43.1547 33.8125Z" fill="#171717"/>
</g>
<defs>
<clipPath id="clip0_49_60">
<rect width="263" height="111.86" fill="white"/>
</clipPath>
</defs>
</svg>
