<svg width="75" height="102" viewBox="0 0 75 102" fill="none" xmlns="http://www.w3.org/2000/svg">
<path d="M40.5469 51.7963C40.5469 52.3989 40.3682 52.988 40.0334 53.489C39.6986 53.9901 39.2227 54.3806 38.666 54.6112C38.1092 54.8418 37.4966 54.9022 36.9056 54.7846C36.3145 54.667 35.7716 54.3768 35.3455 53.9507C34.9194 53.5246 34.6292 52.9817 34.5117 52.3907C34.3941 51.7996 34.4544 51.187 34.685 50.6303C34.9156 50.0735 35.3062 49.5977 35.8072 49.2629C36.3083 48.9281 36.8974 48.7494 37.5 48.7494C38.3081 48.7494 39.083 49.0704 39.6544 49.6418C40.2258 50.2132 40.5469 50.9882 40.5469 51.7963ZM65.1961 22.0892C57.3872 15.6841 47.5997 12.1836 37.5 12.1836C27.4003 12.1836 17.6128 15.6841 9.80389 22.0892C9.59766 22.2586 9.42682 22.467 9.3011 22.7024C9.17539 22.9378 9.09728 23.1957 9.07123 23.4612C9.04518 23.7268 9.07169 23.995 9.14926 24.2503C9.22683 24.5057 9.35394 24.7433 9.52333 24.9495C9.69271 25.1557 9.90106 25.3266 10.1365 25.4523C10.3719 25.578 10.6297 25.6561 10.8953 25.6821C11.4317 25.7348 11.9671 25.5721 12.3836 25.2301C19.4656 19.4225 28.3413 16.2486 37.5 16.2486C46.6587 16.2486 55.5344 19.4225 62.6164 25.2301C63.0329 25.5721 63.5682 25.7348 64.1046 25.6821C64.641 25.6295 65.1346 25.366 65.4766 24.9495C65.8187 24.533 65.9814 23.9977 65.9287 23.4612C65.8761 22.9248 65.6126 22.4313 65.1961 22.0892ZM57.0508 31.1715C51.4885 26.7678 44.602 24.3717 37.5076 24.3717C30.4132 24.3717 23.5267 26.7678 17.9644 31.1715C17.5422 31.5061 17.2702 31.9948 17.2083 32.53C17.1464 33.0653 17.2997 33.6031 17.6344 34.0254C17.969 34.4476 18.4577 34.7196 18.993 34.7815C19.5282 34.8434 20.066 34.6901 20.4883 34.3554C25.3324 30.521 31.3295 28.4348 37.5076 28.4348C43.6857 28.4348 49.6828 30.521 54.5269 34.3554C54.736 34.5212 54.9756 34.6441 55.2322 34.7172C55.4888 34.7904 55.7572 34.8122 56.0223 34.7816C56.2873 34.7509 56.5437 34.6683 56.7768 34.5386C57.0099 34.4088 57.2151 34.2344 57.3808 34.0254C57.5466 33.8163 57.6695 33.5767 57.7426 33.3201C57.8158 33.0635 57.8376 32.7951 57.807 32.53C57.7763 32.265 57.6938 32.0086 57.564 31.7755C57.4343 31.5424 57.2599 31.3372 57.0508 31.1715ZM48.8598 40.2511C45.5603 37.8532 41.5863 36.5617 37.5076 36.5617C33.4289 36.5617 29.4549 37.8532 26.1555 40.2511C25.7198 40.5683 25.4279 41.0456 25.3441 41.5779C25.2603 42.1103 25.3914 42.6541 25.7086 43.0898C26.0257 43.5255 26.503 43.8174 27.0354 43.9012C27.5677 43.985 28.1116 43.8539 28.5472 43.5367C31.1511 41.643 34.288 40.623 37.5076 40.623C40.7272 40.623 43.8641 41.643 46.468 43.5367C46.6837 43.6937 46.9282 43.8068 47.1876 43.8693C47.4471 43.9318 47.7162 43.9427 47.9798 43.9012C48.2434 43.8597 48.4963 43.7667 48.7239 43.6274C48.9516 43.4882 49.1496 43.3055 49.3066 43.0898C49.4637 42.8741 49.5767 42.6295 49.6392 42.3701C49.7018 42.1107 49.7126 41.8415 49.6711 41.5779C49.6296 41.3143 49.5366 41.0615 49.3974 40.8338C49.2582 40.6062 49.0755 40.4082 48.8598 40.2511Z" fill="#FFB914"/>
<path d="M3.492 90.4C3.492 91.1147 3.64133 91.7493 3.94 92.304C4.23867 92.8587 4.64933 93.296 5.172 93.616C5.69467 93.936 6.30267 94.096 6.996 94.096C7.68933 94.096 8.29733 93.936 8.82 93.616C9.34267 93.296 9.748 92.8587 10.036 92.304C10.3347 91.7493 10.484 91.1147 10.484 90.4C10.484 89.6853 10.34 89.0507 10.052 88.496C9.764 87.9413 9.35867 87.504 8.836 87.184C8.31333 86.864 7.7 86.704 6.996 86.704C6.30267 86.704 5.69467 86.864 5.172 87.184C4.64933 87.504 4.23867 87.9413 3.94 88.496C3.64133 89.0507 3.492 89.6853 3.492 90.4ZM1.076 90.4C1.076 89.5467 1.22533 88.768 1.524 88.064C1.82267 87.3493 2.23867 86.7307 2.772 86.208C3.30533 85.6853 3.92933 85.2853 4.644 85.008C5.36933 84.72 6.15333 84.576 6.996 84.576C7.84933 84.576 8.63333 84.72 9.348 85.008C10.0627 85.2853 10.6867 85.6853 11.22 86.208C11.764 86.7307 12.18 87.3493 12.468 88.064C12.7667 88.768 12.916 89.5467 12.916 90.4C12.916 91.2427 12.7667 92.0267 12.468 92.752C12.18 93.4667 11.7693 94.0907 11.236 94.624C10.7133 95.1573 10.0893 95.5733 9.364 95.872C8.64933 96.16 7.86 96.304 6.996 96.304C6.132 96.304 5.33733 96.16 4.612 95.872C3.89733 95.5733 3.27333 95.1573 2.74 94.624C2.20667 94.0907 1.796 93.4667 1.508 92.752C1.22 92.0267 1.076 91.2427 1.076 90.4ZM15.4368 91.072V89.008H23.6608V91.072H15.4368ZM22.2048 84.8H24.4928V96H22.2048V84.8ZM14.6848 84.8H16.9728V96H14.6848V84.8ZM36.1675 84.8V96H33.8475V86.864H29.7515V91.536C29.7515 92.4747 29.6128 93.28 29.3355 93.952C29.0688 94.6133 28.6475 95.12 28.0715 95.472C27.4955 95.824 26.7542 96 25.8475 96V94.064C26.1035 94.064 26.3328 94.0053 26.5355 93.888C26.7382 93.7707 26.9088 93.6 27.0475 93.376C27.1862 93.152 27.2928 92.8853 27.3675 92.576C27.4422 92.2667 27.4795 91.9253 27.4795 91.552V84.8H36.1675ZM40.2211 93.456L40.4931 91.648H45.8691L46.1411 93.456H40.2211ZM43.1491 88.432L41.4691 92.288L41.5171 92.8L40.0451 96H37.4691L43.1491 84.144L48.8291 96H46.2371L44.7971 92.896L44.8291 92.32L43.1491 88.432ZM60.1401 87.216L50.0441 96.56L50.1241 93.584L60.2201 84.24L60.1401 87.216ZM52.2521 84.8V94.176L50.0441 96.56V84.8H52.2521ZM60.2201 84.24V96H58.0121V86.688L60.2201 84.24ZM52.9401 81.376H54.3801C54.3801 81.5467 54.4228 81.712 54.5081 81.872C54.5935 82.032 54.7215 82.1653 54.8921 82.272C55.0628 82.368 55.2761 82.416 55.5321 82.416C55.7988 82.416 56.0175 82.368 56.1881 82.272C56.3588 82.1653 56.4815 82.032 56.5561 81.872C56.6415 81.712 56.6841 81.5467 56.6841 81.376H58.1401C58.1401 81.792 58.0388 82.176 57.8361 82.528C57.6335 82.88 57.3401 83.1627 56.9561 83.376C56.5721 83.5893 56.0975 83.696 55.5321 83.696C54.9775 83.696 54.5028 83.5893 54.1081 83.376C53.7241 83.1627 53.4308 82.88 53.2281 82.528C53.0361 82.176 52.9401 81.792 52.9401 81.376ZM63.4055 91.072V89.008H71.6295V91.072H63.4055ZM70.1735 84.8H72.4615V96H70.1735V84.8ZM62.6535 84.8H64.9415V96H62.6535V84.8Z" fill="#FFB914"/>
</svg>
