<svg width="119" height="20" viewBox="0 0 119 20" fill="none" xmlns="http://www.w3.org/2000/svg">
<path d="M9.33691 0.690984C9.63626 -0.230326 10.9397 -0.230329 11.239 0.690982L12.9821 6.05573C13.116 6.46775 13.5 6.74671 13.9332 6.74671H19.574C20.5427 6.74671 20.9455 7.98633 20.1618 8.55573L15.5983 11.8713C15.2478 12.126 15.1011 12.5773 15.235 12.9894L16.9781 18.3541C17.2775 19.2754 16.223 20.0415 15.4393 19.4721L10.8758 16.1565C10.5253 15.9019 10.0507 15.9019 9.70018 16.1565L5.13666 19.4721C4.35294 20.0415 3.29846 19.2754 3.59782 18.3541L5.34093 12.9894C5.4748 12.5773 5.32814 12.126 4.97766 11.8713L0.414132 8.55573C-0.369582 7.98633 0.0331926 6.74671 1.00192 6.74671H6.64274C7.07597 6.74671 7.45992 6.46775 7.5938 6.05573L9.33691 0.690984Z" fill="#FFCC00"/>
<path d="M33.9131 0.690984C34.2124 -0.230326 35.5158 -0.230329 35.8152 0.690982L37.5583 6.05573C37.6922 6.46775 38.0761 6.74671 38.5094 6.74671H44.1502C45.1189 6.74671 45.5217 7.98633 44.738 8.55573L40.1744 11.8713C39.824 12.126 39.6773 12.5773 39.8112 12.9894L41.5543 18.3541C41.8536 19.2754 40.7992 20.0415 40.0154 19.4721L35.4519 16.1565C35.1014 15.9019 34.6268 15.9019 34.2764 16.1565L29.7128 19.4721C28.9291 20.0415 27.8746 19.2754 28.174 18.3541L29.9171 12.9894C30.051 12.5773 29.9043 12.126 29.5538 11.8713L24.9903 8.55573C24.2066 7.98633 24.6094 6.74671 25.5781 6.74671H31.2189C31.6521 6.74671 32.0361 6.46775 32.17 6.05573L33.9131 0.690984Z" fill="#FFCC00"/>
<path d="M58.4893 0.690984C58.7886 -0.230326 60.092 -0.230329 60.3914 0.690982L62.1345 6.05573C62.2684 6.46775 62.6523 6.74671 63.0855 6.74671H68.7264C69.6951 6.74671 70.0979 7.98633 69.3141 8.55573L64.7506 11.8713C64.4001 12.126 64.2535 12.5773 64.3874 12.9894L66.1305 18.3541C66.4298 19.2754 65.3753 20.0415 64.5916 19.4721L60.0281 16.1565C59.6776 15.9019 59.203 15.9019 58.8525 16.1565L54.289 19.4721C53.5053 20.0415 52.4508 19.2754 52.7502 18.3541L54.4933 12.9894C54.6271 12.5773 54.4805 12.126 54.13 11.8713L49.5665 8.55573C48.7828 7.98633 49.1855 6.74671 50.1543 6.74671H55.7951C56.2283 6.74671 56.6123 6.46775 56.7461 6.05573L58.4893 0.690984Z" fill="#FFCC00"/>
<path d="M83.0644 0.690984C83.3638 -0.230326 84.6672 -0.230329 84.9666 0.690982L86.7097 6.05573C86.8435 6.46775 87.2275 6.74671 87.6607 6.74671H93.3016C94.2703 6.74671 94.6731 7.98633 93.8893 8.55573L89.3258 11.8713C88.9753 12.126 88.8287 12.5773 88.9625 12.9894L90.7057 18.3541C91.005 19.2754 89.9505 20.0415 89.1668 19.4721L84.6033 16.1565C84.2528 15.9019 83.7782 15.9019 83.4277 16.1565L78.8642 19.4721C78.0805 20.0415 77.026 19.2754 77.3254 18.3541L79.0685 12.9894C79.2023 12.5773 79.0557 12.126 78.7052 11.8713L74.1417 8.55573C73.358 7.98633 73.7607 6.74671 74.7295 6.74671H80.3703C80.8035 6.74671 81.1875 6.46775 81.3213 6.05573L83.0644 0.690984Z" fill="#FFCC00"/>
<path d="M107.641 0.690984C107.94 -0.230326 109.243 -0.230329 109.543 0.690982L111.286 6.05573C111.42 6.46775 111.804 6.74671 112.237 6.74671H117.878C118.846 6.74671 119.249 7.98633 118.466 8.55573L113.902 11.8713C113.552 12.126 113.405 12.5773 113.539 12.9894L115.282 18.3541C115.581 19.2754 114.527 20.0415 113.743 19.4721L109.179 16.1565C108.829 15.9019 108.354 15.9019 108.004 16.1565L103.44 19.4721C102.657 20.0415 101.602 19.2754 101.902 18.3541L103.645 12.9894C103.779 12.5773 103.632 12.126 103.281 11.8713L98.7178 8.55573C97.9341 7.98633 98.3369 6.74671 99.3056 6.74671H104.946C105.38 6.74671 105.764 6.46775 105.898 6.05573L107.641 0.690984Z" fill="#FFCC00"/>
</svg>
